<svg width="30" height="30" viewBox="0 0 30 30" fill="none" xmlns="http://www.w3.org/2000/svg">
<path fill-rule="evenodd" clip-rule="evenodd" d="M14.9883 0.0205078C14.436 0.0205078 13.9883 0.468223 13.9883 1.02051L13.9883 22.0825C13.9335 22.0409 13.8808 21.9951 13.8307 21.9453L3.8798 12.0509C3.48816 11.6615 2.8532 11.6615 2.46157 12.0509C2.06993 12.4403 2.06993 13.0716 2.46157 13.461L12.4125 23.3555C13.8067 24.7418 16.0672 24.7418 17.4614 23.3555L27.4689 13.4048C27.8605 13.0154 27.8605 12.384 27.4689 11.9946C27.0772 11.6052 26.4423 11.6052 26.0506 11.9946L16.0432 21.9453C16.0252 21.9632 16.0069 21.9805 15.9883 21.9973L15.9883 1.02051C15.9883 0.468223 15.5406 0.0205078 14.9883 0.0205078ZM30 29C30 28.4477 29.5523 28 29 28L1 28C0.447714 28 0 28.4477 0 29C0 29.5523 0.447714 30 1 30L29 30C29.5523 30 30 29.5523 30 29Z" fill="#232323"/>
</svg>
